<svg xmlns="http://www.w3.org/2000/svg" version="1.1" xmlns:xlink="http://www.w3.org/1999/xlink" viewBox="0 0 53.57230588034938 10.573422380065958"><g transform="matrix(0.6642056018954603,0,0,0.6642056018954603,10.769888106091766,4.459003076660927)"><g transform="matrix(1,0,0,1,0,0)" clip-path="url(#SvgjsClipPath46170)"><g clip-path="url(#SvgjsClipPath46168143b0154-2bc5-4e14-b50a-1521e719134d)"><path d=" M 45.479909799457815 0.6665495909449981 C 45.48385516860733 0.6614587920424024 45.48864051957577 0.6570807049861704 45.493018606632 0.6523717160012699 C 45.49498174519631 0.6573019700336293 45.49518846651308 0.6627576152195953 45.4936040485058 0.6678222906706468 C 45.4885132496032 0.6909599716829429 45.48148794711762 0.7138431127501095 45.478764369704734 0.7372607877020485 C 45.46644463636046 0.8440148406894745 45.467971876031235 0.9502089057976155 45.48894596750993 1.056301154927704 C 45.51727626340287 1.1991235181400177 45.575794996788204 1.3269025705951631 45.669516604584985 1.4383656125674897 C 45.78627407741601 1.5772680606248062 45.93118366817839 1.6755713874339242 46.10088544959641 1.7387227478206206 C 46.13361339882339 1.7508498123757343 46.166972841485006 1.7611992268336683 46.20081783205436 1.7697257131374275 L 46.200817832054355 1.7697257131374275 C 46.2373952221695 1.778990967140151 46.27435442220235 1.786270809570861 46.31156816218032 1.7920488663253078 C 46.93969638477706 1.9245878157543808 47.28859428756643 2.104725734922719 47.406471736156035 2.214966985158423 C 47.425740410002355 2.233650217130949 47.4446527279255 2.252867982988245 47.46315778193643 2.2722639268071356 C 47.55015953518179 2.3630074172458997 47.62031074405955 2.465714285105762 47.676614979922256 2.577711860962861 C 47.730981162639715 2.686347882507477 47.76709932229028 2.803190128977048 47.783521756876766 2.9235552844106807 C 47.800652295183994 3.0457344580729706 47.79825961969978 3.1668954719547417 47.771431109483096 3.2877001299133313 C 47.72846476674519 3.481150488211958 47.628303298336625 3.641281567693096 47.489579028240904 3.779547665887588 C 47.483699155508404 3.785402084625574 47.47685203098442 3.7903656135556036 47.47059034833422 3.795736406397842 L 47.46618680728348 3.7920455771934614 C 47.47127760618607 3.7844093788395683 47.476368405088664 3.777027720430804 47.481459203991264 3.7694169760714247 C 47.48708453677863 3.760940795898603 47.49298986350564 3.75261733969286 47.498080662408235 3.74381025759137 C 47.58337699802122 3.5966861693063614 47.63927396997172 3.4398895631064232 47.65431728072889 3.269525977831068 C 47.66579703225425 3.1394815198642667 47.64703743829818 3.0138406029482128 47.59681670712408 2.8936468408579334 C 47.52414555278953 2.719719696350761 47.40232273505042 2.5847626174429563 47.25351868312755 2.472892311558421 C 47.10392555737479 2.3603856558110627 46.93748188725443 2.278092891550607 46.763376564785666 2.2118361438333283 C 46.6343757205939 2.162760842412308 46.50313492488499 2.1195145057347595 46.3725304790389 2.074639113408381 C 46.232940773129734 2.0266583337514192 46.09388560110534 1.9775575783358867 45.96526656683127 1.9035628162866614 C 45.96231390346776 1.9018573986542928 45.95821581035117 1.9020610306103958 45.94999417012348 1.900482882950592 C 45.95791036241702 1.9079154493483812 45.96193209355007 1.912217174421075 45.966488358567894 1.9157552796583772 C 45.9924005249821 1.9363221072248633 46.0182872374018 1.9569143887858615 46.04447939775565 1.977099406434653 C 46.15553517581577 2.062548466014717 46.269798157184525 2.1435430765550096 46.39406455839688 2.2087307565027445 C 46.49465874471217 2.2614205251446067 46.597340158577516 2.3101394706424454 46.69981794048676 2.3591384100799266 C 46.82907332462366 2.4209407087574353 46.95927050655754 2.4807066878739055 47.08132241024726 2.5565850455170906 C 47.19568720759407 2.627703506186349 47.29526323412884 2.7147052594317045 47.37523968488861 2.8233938160021173 C 47.43744924747833 2.907951985774227 47.48079740013392 3.0007827037630554 47.4974188585509 3.1052968052333383 C 47.5185965819857 3.23740303675569 47.49973517205158 3.3622548798418426 47.43032212901469 3.47773965294722 C 47.329829758677455 3.644997850891993 47.18825464119628 3.7621625876352263 47.0019568553558 3.822361284658418 C 46.89578824424217 3.8566478152673977 46.7871760496553 3.8715893100465153 46.67594209363359 3.8500297766940235 C 46.59387841532375 3.834146484117927 46.518458229581796 3.8030926108120933 46.45304146368345 3.7501992102141277 C 46.335036745121286 3.6547976387794896 46.29907025087445 3.493521129545266 46.37097778537361 3.3656657151065814 C 46.41888220304703 3.2804966494661607 46.49241879319502 3.2316504339957572 46.59354751339508 3.23569761912332 C 46.680803806585565 3.239210270366112 46.780023477197155 3.3042452263467674 46.77215819289264 3.4295806953286676 C 46.77182729096398 3.4346714942312633 46.76961279344135 3.439762293133859 46.768263731732155 3.4447258220638886 C 46.76300085628554 3.4386485944954406 46.75934308112484 3.431350545490598 46.75762396202573 3.4234971906400653 C 46.7414861295045 3.362560327775998 46.6665495696583 3.313332302387899 46.60472181698628 3.323208452258936 C 46.52151270892335 3.3364699834001965 46.46248489564776 3.408173885943253 46.46426667526367 3.4937502154958815 C 46.46625208683568 3.588948154974417 46.52823256347478 3.670706385350099 46.62269233711244 3.7029820503925532 C 46.688541820917514 3.7254833815420256 46.75505310857992 3.72843604490553 46.82309163591311 3.7131636481977446 C 46.929871142895045 3.68893144542139 47.01170573525427 3.6304381660305682 47.06767906918831 3.5370983681514816 C 47.125917808634 3.4399913790844736 47.13368127696046 3.3352227376690604 47.105325527073 3.2276032488681925 C 47.07834429288924 3.1252781909260245 47.019189209641084 3.042476346775309 46.94178361232712 2.9718669659963113 C 46.859745388011795 2.8970322221281584 46.76650740611076 2.838386218770259 46.669425871038264 2.785696450128397 C 46.545694003710686 2.718574266597677 46.422522124262386 2.6507902792096183 46.30464467567279 2.5733592279011424 C 46.10970065791063 2.445868104876992 45.93730201300339 2.28686256894693 45.794495717643706 2.1028421393287613 C 45.67328379577291 1.9469364229367745 45.57961309596515 1.775885579809568 45.520432558722476 1.5867624005781487 C 45.518192607205336 1.5795334661364633 45.51534175981988 1.5725081636508818 45.512669090396024 1.5653810451872476 C 45.509716427032515 1.5688936964300382 45.509283709125796 1.571439095881336 45.50979278901605 1.5738063173710426 C 45.52111981657433 1.6251215703092052 45.53053779454413 1.6769459031376264 45.54430840557565 1.7275993522184505 C 45.59852541388829 1.9268786752605482 45.68985434620085 2.1087983740447966 45.80727362288922 2.2779147135890163 C 45.9396343943567 2.4685905864857265 46.10200542535498 2.630147089659594 46.289372278965004 2.7666314082381764 C 46.42542387963687 2.865698354882683 46.568704414750414 2.9527764701115786 46.72293016750454 3.0211713533679485 C 46.72965002205597 3.0241494707259666 46.736089882667756 3.027814845935836 46.7426570132521 3.031174773211547 C 46.70544327327413 3.023742206813758 46.670444030818786 3.011320657491425 46.63498661646221 3.000273623872794 C 46.476688224586 2.9509692365011575 46.324116981475214 2.8884542259772856 46.17951283864699 2.806695995601602 C 46.04005040271039 2.727788612611373 45.910387754661286 2.635390612529265 45.793070293950976 2.5265493319917764 C 45.67710189494985 2.418980751179934 45.57294414940275 2.300925124628747 45.48492423637688 2.168742531122856 C 45.358137889707734 1.9783466521657864 45.27062705657212 1.7732892723692433 45.238020489601 1.5455269294671243 C 45.216053692336295 1.391810256603255 45.227838891795805 1.2409953391138648 45.26828528907693 1.0919876552348975 C 45.31112436184227 0.9364382947660941 45.380944668791365 0.7941759194330653 45.479909799457815 0.6665495909449981 Z" fill="#a5b2ba" transform="matrix(1,0,0,1,0,0)" fill-rule="nonzero"></path></g><g clip-path="url(#SvgjsClipPath46168143b0154-2bc5-4e14-b50a-1521e719134d)"><path d=" M 45.13757902725279 0.6915708675512549 C 45.11969553133085 0.8030268523298134 45.11324763731086 0.9160185189657972 45.118335807400975 1.0287853868591745 C 45.12062666690715 1.0812969775394476 45.125692011815225 1.1337067522416668 45.129688288953766 1.1861419809384 C 45.12996828289341 1.189960080115347 45.13159733854224 1.1937781792922935 45.13714630934607 1.1971635605625193 C 45.138139015132076 1.1851238211578803 45.13895354295649 1.1730331737642161 45.140124426704084 1.1609934343595785 C 45.15030602450928 1.0555120810978007 45.17881449836381 0.9544597228812814 45.21735184605646 0.856258212050216 C 45.27055069458858 0.7207411452631258 45.34228005112615 0.5948456884019411 45.42075471620966 0.47261560675062464 C 45.47308812892834 0.39116282430909766 45.53275229206676 0.31480084077016657 45.59450368275524 0.24055153877581192 C 45.637775473427304 0.1884472120077476 45.684559915342156 0.13911737064159824 45.72984257158074 0.08864209952236424 C 45.73458595720479 0.08318825705981525 45.74050377016809 0.07888043732918226 45.74715128784956 0.0760423722384409 C 45.7453039637198 0.0806827560364578 45.74307326741534 0.08516117686144131 45.74048234128716 0.08943117335226569 C 45.64859342109532 0.2162175200214056 45.59610728440956 0.3592435151898241 45.56820970642334 0.511967482267687 C 45.55293730971555 0.5951002283470703 45.55459181935889 0.6787675083112257 45.56385707336162 0.762867506182102 C 45.584703894867744 0.9517361454683928 45.65775685911999 1.1192234293637817 45.7693726250594 1.2706237887269705 C 45.844003736971445 1.3719052328941062 45.93589265716329 1.4560052307649824 46.04190854430984 1.5240437580981698 C 46.09399210373669 1.5573981126173564 46.14785642222774 1.5878863875417757 46.20326141552761 1.6153726904107337 C 46.23001601780632 1.6296951756546059 46.25753002174482 1.6425514721212364 46.285681449760624 1.6538845841088672 L 46.28723414342591 1.6544954799771792 C 46.30725795244279 1.6632177154302927 46.32744297009158 1.6716090489547373 46.34778919637229 1.6796694805505128 C 46.357181720347576 1.6829021378536617 46.36815239198267 1.685956617195218 46.38072666527208 1.688909280558724 C 46.7518713592658 1.811088454221014 47.20798148694384 1.8115975341112738 47.572966314265415 2.1312997051942664 C 47.578489831074734 2.1387831795810817 47.58378426193343 2.146088476006306 47.588824152846996 2.1531137784918886 L 47.59371131979349 2.150059299150332 C 47.5929476999581 2.146521193913028 47.5929476999581 2.1425758247635165 47.59131864430927 2.139495891427446 C 47.568868221148826 2.0967331806456437 47.54776685969757 2.0531304880449146 47.52325466298157 2.0115895689997356 C 47.4574051791765 1.8999738030603317 47.36612715485296 1.812310245957638 47.260060359717386 1.7394100056724713 C 47.171887722724435 1.6788040447370731 47.07404256781655 1.6386630953901076 46.97283748563295 1.6058019884738548 C 46.86890882603647 1.5720754457441597 46.76411473062654 1.5403852225755026 46.661306046788624 1.5036551084932772 C 46.53319657586915 1.4580309791324249 46.41288759848501 1.3929269346377442 46.30461922167828 1.3106374681013708 C 46.11692146613959 1.1680950988287 45.99387685666385 0.9816445890211414 45.9394307624006 0.7513877546567507 C 45.88030113314695 0.5012768045722376 45.90074069074087 0.25758026110499443 46.00367664455135 0.02215626585446895 C 46.07802776252375 -0.14777460151416655 46.187785386863716 -0.29212420439725983 46.33340768947245 -0.40776170146971513 C 46.455739587101824 -0.5049195985257487 46.59207118171333 -0.5751726233815653 46.74410789093934 -0.6137099710742133 C 46.81891718081298 -0.6326477429918681 46.894108280604314 -0.6495491953484844 46.970801166071915 -0.6590435353018251 C 46.97847948941745 -0.6602187325872901 46.98632651609288 -0.6595735326161989 46.993709761133594 -0.6571599397078648 C 46.98945894404993 -0.655861785987703 46.985233580960774 -0.6543345463169246 46.98098276387711 -0.6532909325418922 C 46.87947223375935 -0.6287532818313825 46.78648879180345 -0.5845651473568539 46.69648346720556 -0.5325626365668417 C 46.51927275740621 -0.43036484859723856 46.372734110995005 -0.295127775749791 46.25885293954394 -0.1254514483262854 C 46.18249095600501 -0.01182481682035541 46.12822303970334 0.11198341249076527 46.09849277411219 0.24617687156318047 C 46.07663973168392 0.3457405979530952 46.070158728191565 0.4480631961369843 46.07927500825489 0.5495884861578682 C 46.09134020165404 0.6904763457871961 46.13097207111075 0.8222771293753914 46.2024723416977 0.9441254011090137 C 46.30683371920091 1.1219724607711852 46.45495051327192 1.2498787831988953 46.644251870464934 1.3314079276239608 C 46.717737552623895 1.3630472428035918 46.79348864029452 1.3868976356622507 46.8705378816853 1.4074135552397098 C 46.888992027707204 1.4123261761807155 46.907267995767526 1.417875146984544 46.92717301947667 1.419555110622401 C 46.91673688172635 1.4087880709434106 46.90574075609675 1.3985046571601685 46.89596642220376 1.3871521756073806 C 46.84737474667849 1.3307461237666227 46.812120964278016 1.2660675237091477 46.78045619510387 1.1991998801235568 C 46.71341037355669 1.0575484006588396 46.685970967471704 0.9079298209115598 46.69118903634686 0.7519986505250622 C 46.69327626389693 0.68905092209447 46.70501055536741 0.627274077411474 46.72231927163623 0.5668208404431536 C 46.72910700350636 0.5431995335351107 46.7359880666897 0.5196206499512563 46.74296246118626 0.49608418969158996 C 46.74436537819879 0.4924695908539716 46.74606825028557 0.4889787030760844 46.74805326008885 0.48564805194127003 C 46.889984733493215 0.5862676922510683 47.0227527688729 0.6950580647995324 47.122405157391206 0.8386440478472368 C 47.14167383123753 0.8664143558608952 47.15877891555025 0.8957882655288705 47.17585854586846 0.9251876291913588 C 47.19863987095757 0.9645649587029346 47.20245797013452 1.0079385653530477 47.1930145381702 1.051032178063518 C 47.176342171764205 1.1272159836408586 47.20640333928403 1.1893491842470358 47.24863151618106 1.2474606537201627 C 47.289968803270135 1.3043503314566665 47.34741846888593 1.3365496345155825 47.41713695985697 1.3467312323207734 C 47.445463533249075 1.351301764084317 47.4744865643491 1.3486131489522393 47.50149149767297 1.338916856005289 C 47.49894609822168 1.2830707920438171 47.46944491858113 1.2365917980631216 47.44928535492686 1.1872619566969722 L 47.45371434997212 1.1850983671633695 C 47.45954331471559 1.1929891054623916 47.46514319350844 1.2010325677284928 47.47122669819704 1.2087451280659254 C 47.49693523265515 1.2413516950370482 47.52259285912423 1.274009169997198 47.548632295511005 1.3063611970231923 C 47.59170045422697 1.3598145855004442 47.65976443555466 1.353247454916096 47.70899246094276 1.3309243017282149 C 47.72518120145301 1.3235935513084778 47.734980989340514 1.3094411303592617 47.74289718163405 1.2941687336514764 C 47.7777182461278 1.2272501820768595 47.813404746435 1.1607388944144494 47.84654584729089 1.0930821769989572 C 47.85983283242666 1.0659482188481229 47.86807992664887 1.036243407251479 47.877472450624154 1.0073531234792497 C 47.88510864897805 0.9838590865437715 47.88228325558711 0.959881423712547 47.873679805441725 0.9373546385685629 C 47.82559720980671 0.811586451679942 47.81175023679165 0.6789456862728187 47.795026962396626 0.5469412707285191 C 47.78265632106332 0.44929974777673887 47.77341652105511 0.3514291388743418 47.774052870917934 0.25274400214752935 C 47.77435831885209 0.20389778667712632 47.7824272351127 0.15813150454279357 47.8096884632361 0.11715057337690027 C 47.84766582304946 0.06005726368429265 47.849676688615986 0.0013094443483414597 47.818011919441844 -0.058481988762641546 C 47.78985980151049 -0.11165538330025115 47.76023135189739 -0.16403970400795798 47.731239252147105 -0.2167549266443336 C 47.72614845324451 -0.22604563464157024 47.72077766040227 -0.23520907266624191 47.71879224883026 -0.24686700215318536 C 47.72897384663545 -0.2360745084796827 47.739384530391256 -0.2254601927677713 47.749337042245834 -0.21446406713816524 C 47.80085902710089 -0.15688260390429654 47.859136624697136 -0.10572412037135592 47.92290783082982 -0.06209645598348357 C 48.00153521988041 -0.00879579147331011 48.088104255219044 0.019356326458042306 48.182182218939005 0.0262543589710591 C 48.184729543900005 0.026535780934761277 48.187304985212535 0.026424178477884697 48.1898184172929 0.025923457042390297 C 48.1911929329966 0.02559255511372127 48.19221109277712 0.023912591475864886 48.19409468837108 0.022207173843495465 C 48.17711687403092 0.013603723698108805 48.15975724977307 0.0062220652893461015 48.14384850320246 -0.00355226860363711 C 48.096911337320535 -0.03246800637037883 48.060410309188924 -0.07265986370637023 48.02706557637693 -0.11580438440586627 C 47.98193564410542 -0.17414493982961 47.95660891956501 -0.24223437515182367 47.92873679557329 -0.31643276915715135 C 48.00486969316161 -0.26440480437262615 48.086551561553755 -0.24307435697075164 48.168513423885535 -0.22266025337134399 C 48.17299332691982 -0.22154027761277306 48.17800776383888 -0.22266025337134399 48.18500761232995 -0.22266025337134399 C 48.181800409021314 -0.2264528985537777 48.180629525273716 -0.22915102197215287 48.17869502169073 -0.2299146418075424 C 48.11363461171556 -0.2557504462382145 48.06415204638233 -0.30197490027378016 48.019709371962676 -0.35379923310220196 C 47.973383101949054 -0.40791442543679146 47.92967859337028 -0.46424411529401044 47.884803201043894 -0.5195047373816828 C 47.87434160929906 -0.5322317346381716 47.863345483669455 -0.5447805539330695 47.85392750569965 -0.5595184167560832 C 47.92334054873654 -0.5142103065229837 47.99685168489002 -0.48257099134335313 48.080671688821255 -0.4804837637932894 C 48.11992174836026 -0.4795165120017959 48.1586372740145 -0.4824437213707887 48.19628373189919 -0.4942798288193231 C 48.20628715174279 -0.49743612413893235 48.21598512365224 -0.5015342172555214 48.227133973248925 -0.5056577643666241 C 48.223443144044545 -0.5096031335161352 48.222348622280485 -0.511664907071686 48.22148318646704 -0.5115630910936345 C 48.174393296618035 -0.5062941142294486 48.13297964754542 -0.5236791924818114 48.09309323814359 -0.5449587318946599 C 48.02945825186114 -0.5789398145694843 47.977404833082105 -0.6276333060728099 47.927642273809234 -0.6790249209945106 C 47.91412620272285 -0.6929991639821353 47.901373751471844 -0.707737026805149 47.887043152561034 -0.7234930494086821 C 47.9461982358092 -0.7704302152906118 47.99003001436054 -0.8284398687856864 48.01762214441261 -0.8981583597567311 C 48.045214274464676 -0.9678768507277752 48.05012689540568 -1.0412607169086885 48.04908328163065 -1.1196081120196322 L 48.025283796761016 -1.1075683726149936 C 47.98669554107934 -1.088223336785131 47.94874363526049 -1.067401969273516 47.90936630574892 -1.0498132590650484 C 47.82508812991645 -1.0121158931913297 47.73882454251197 -0.9785420744287124 47.655233624531355 -0.9294158650186668 C 47.652000967228204 -0.9556589333615461 47.653095488992264 -0.9796620501872837 47.6531718509758 -1.0035633510349693 C 47.65324821295934 -1.0274646518826547 47.65368093086607 -1.0510605047961843 47.6543427347234 -1.0748345356713052 C 47.65502999257525 -1.0994485483653538 47.65586997439418 -1.1240371070648902 47.65719358210885 -1.1486511197589389 C 47.65851718982353 -1.1732651324529877 47.65991715952174 -1.1977773291689846 47.66228438101145 -1.2222386178959557 C 47.66465160250116 -1.2458344708094855 47.66796062178784 -1.2693539617394762 47.67165145099222 -1.2927716366914155 C 47.67544409617466 -1.3169020234897177 47.68017853915407 -1.340854232326429 47.68501479811154 -1.3676827425431068 C 47.67842221353268 -1.3667409447461267 47.67361140856973 -1.3668936687132047 47.66946240746411 -1.3652900670588868 C 47.50558959078956 -1.3025968785734243 47.41146071908057 -1.1821994845270423 47.37798871629601 -1.0119631692242517 C 47.36410395592138 -0.9408200158137785 47.36392253337415 -0.8676808117731476 47.377454182411235 -0.7964696516773868 C 47.36151998184611 -0.8109784285497841 47.33779685896002 -0.8641263690928802 47.324280787873626 -0.9135580264370816 C 47.31272467436473 -0.9559134733066758 47.313208300260484 -0.9989561780281198 47.31717912340451 -1.0426606866069017 C 47.314248184081045 -1.0446958092714642 47.311158285870555 -1.046491865807039 47.3079393233963 -1.04803147944914 C 47.1410374813747 -1.1081538144887921 46.969401196373695 -1.1388513318714422 46.791554136711525 -1.1323351092761205 C 46.5847658852881 -1.124698910922227 46.391926422857786 -1.0699982767138394 46.21575932683347 -0.9608770022367064 C 46.14346998241662 -0.9161034258883793 46.07657688483651 -0.8639736451258022 46.020756274869555 -0.7988623271616072 C 46.0026075767818 -0.7777355117158361 45.98331344894096 -0.7575759480615579 45.965444744792855 -0.735761874763937 C 46.25903111750553 -0.904521858384975 46.57331158775726 -0.9525026380419368 46.90540985416808 -0.899023795570172 C 46.88998473349321 -0.8980310897841661 46.874559612818345 -0.8964783961188743 46.85913449214348 -0.8961729481847187 C 46.6945998716116 -0.8940093586511155 46.53681055962565 -0.8563883547609354 46.380879389239155 -0.8073639613289414 C 46.22305167357372 -0.7579123100015857 46.07044752164962 -0.6931194857209628 45.925252887456864 -0.6139136030303156 C 45.745216784266574 -0.5155593682321711 45.583176655196965 -0.3937620044875758 45.44618325672812 -0.23999442363468093 C 45.339276479773616 -0.12010610947855893 45.249271155175734 0.010549244356553134 45.186196156772574 0.15886967038367117 C 45.15758586693999 0.2261700318759825 45.13650995948324 0.29583761485800064 45.120473942940066 0.3671087994943365 C 45.11881943329672 0.3745413658921264 45.11769945753815 0.38212665625699316 45.11668129775763 0.38966103863283386 C 45.11637584982348 0.39190099014997637 45.11726673963143 0.394293665634196 45.11846307737354 0.40213349594419334 C 45.18298895346394 0.27415081153294407 45.27271428412218 0.171902115574315 45.37649021975159 0.08008955736600676 C 45.37366482636065 0.08543489621373124 45.37124669688192 0.09106022900109978 45.36798858558426 0.09612557390918175 C 45.25016204498369 0.2786052605727134 45.17222191378495 0.4764846139165979 45.13757902725279 0.6915708675512549 Z M 47.07763158104288 -0.4614950838866092 C 47.150600313003906 -0.48416527246110364 47.226702779390386 -0.49511928517760484 47.30310306443883 -0.4939489268906553 C 47.29938678123994 -0.4930325830881883 47.29564504404653 -0.4921926012692599 47.29195421484214 -0.491174441488741 C 47.287067047895654 -0.4898253797795531 47.28233260491624 -0.48783996820754083 47.27736907598621 -0.4869236244050733 C 47.203934301816275 -0.4733820993241702 47.13701575024166 -0.44433909158486273 47.07289713806347 -0.40623446179893574 C 46.98627695055165 -0.3554194799802295 46.912406356863 -0.28549271409841426 46.85691999462085 -0.20178797787070413 C 46.785648809984515 -0.09455029898753087 46.76149296919171 0.023887137481351406 46.78055801108192 0.15013895026571777 C 46.8032629741875 0.300317517892283 46.8872102480913 0.40938788438038953 47.01728016005261 0.48419717425402964 C 47.03914514133926 0.4967714475434406 47.06332643612659 0.5052985357052877 47.08651502512791 0.5155310414995042 C 47.09229308188235 0.5180764409508021 47.09837658657096 0.5199345825502493 47.104332821286995 0.5220981720838522 C 47.079808998228465 0.5264900571131832 47.054860125015274 0.528036016049023 47.02998170331458 0.5267053450907013 C 46.87471233678543 0.5201127605118403 46.76485289646742 0.4427071631978763 46.69472714158417 0.3072410043998124 C 46.6555788980232 0.23166809469078276 46.64552457019058 0.1489426125236073 46.650208105180965 0.06486806864724404 C 46.65557889802321 -0.030711680748985337 46.68131288647582 -0.1209460912974889 46.73420628707379 -0.2012279899914191 C 46.81774629706538 -0.32801433666055746 46.931398382565824 -0.41611061166997143 47.07763158104288 -0.4614950838866092 Z" fill="#3682ae" transform="matrix(1,0,0,1,0,0)" fill-rule="nonzero"></path></g></g><g><path d=" M 38.123805908203124 0.00749999999999984 L 38.123805908203124 1.0574999999999999 L 38.06080590820313 1.0574999999999999 L 37.34530590820313 0.14549999999999985 L 37.34530590820313 1.0574999999999999 L 37.26880590820313 1.0574999999999999 L 37.26880590820313 0.00749999999999984 L 37.33330590820313 0.00749999999999984 L 38.04730590820313 0.9194999999999999 L 38.04730590820313 0.00749999999999984 L 38.123805908203124 0.00749999999999984 M 39.2623447265625 0.9884999999999999 L 39.2623447265625 1.0574999999999999 L 38.537844726562504 1.0574999999999999 L 38.537844726562504 0.00749999999999984 L 39.2398447265625 0.00749999999999984 L 39.2398447265625 0.0764999999999999 L 38.61434472656251 0.0764999999999999 L 38.61434472656251 0.4904999999999998 L 39.17384472656251 0.4904999999999998 L 39.17384472656251 0.5579999999999998 L 38.61434472656251 0.5579999999999998 L 38.61434472656251 0.9884999999999999 L 39.2623447265625 0.9884999999999999 M 40.23439599609376 1.0574999999999999 L 39.87289599609375 0.5714999999999999 L 39.512895996093754 1.0574999999999999 L 39.42289599609376 1.0574999999999999 L 39.82639599609376 0.5159999999999999 L 39.45139599609376 0.00749999999999984 L 39.541395996093755 0.00749999999999984 L 39.87589599609375 0.45899999999999985 L 40.21039599609376 0.00749999999999984 L 40.295895996093755 0.00749999999999984 L 39.920895996093755 0.5144999999999998 L 40.324395996093756 1.0574999999999999 L 40.23439599609376 1.0574999999999999 M 40.74289526367188 0.0764999999999999 L 40.36489526367188 0.0764999999999999 L 40.36489526367188 0.00749999999999984 L 41.197395263671886 0.00749999999999984 L 41.197395263671886 0.0764999999999999 L 40.819395263671886 0.0764999999999999 L 40.819395263671886 1.0574999999999999 L 40.74289526367188 1.0574999999999999 L 40.74289526367188 0.0764999999999999 M 42.169363037109385 0.5369999999999999 L 42.24286303710939 0.5369999999999999 L 42.24286303710939 0.9299999999999999 Q 42.173863037109385 0.9959999999999999 42.075613037109385 1.0305 Q 41.977363037109384 1.065 41.86786303710939 1.065 Q 41.71186303710938 1.065 41.58661303710939 0.9959999999999999 Q 41.461363037109386 0.9269999999999998 41.39011303710939 0.8054999999999999 Q 41.31886303710939 0.6839999999999999 41.31886303710939 0.5324999999999999 Q 41.31886303710939 0.3809999999999999 41.39011303710939 0.25949999999999984 Q 41.461363037109386 0.1379999999999999 41.58661303710939 0.06899999999999984 Q 41.71186303710938 -2.220446049250313e-16 41.86936303710939 -2.220446049250313e-16 Q 41.984863037109385 -2.220446049250313e-16 42.081613037109385 0.03674999999999984 Q 42.178363037109385 0.0734999999999999 42.24736303710939 0.1439999999999999 L 42.199363037109386 0.19499999999999984 Q 42.13336303710938 0.1289999999999999 42.051613037109384 0.0997499999999999 Q 41.969863037109384 0.0704999999999999 41.87086303710939 0.0704999999999999 Q 41.73586303710938 0.0704999999999999 41.62711303710938 0.13049999999999984 Q 41.51836303710938 0.1904999999999999 41.456863037109386 0.2962499999999999 Q 41.395363037109384 0.4019999999999999 41.395363037109384 0.5324999999999999 Q 41.395363037109384 0.6614999999999999 41.45761303710938 0.7672499999999999 Q 41.51986303710938 0.8729999999999999 41.627863037109385 0.9337499999999999 Q 41.73586303710938 0.9944999999999999 41.87086303710939 0.9944999999999999 Q 42.05086303710939 0.9944999999999999 42.169363037109385 0.8984999999999999 L 42.169363037109385 0.5369999999999999 M 43.35137841796876 0.9884999999999999 L 43.35137841796876 1.0574999999999999 L 42.62687841796876 1.0574999999999999 L 42.62687841796876 0.00749999999999984 L 43.32887841796876 0.00749999999999984 L 43.32887841796876 0.0764999999999999 L 42.703378417968764 0.0764999999999999 L 42.703378417968764 0.4904999999999998 L 43.262878417968764 0.4904999999999998 L 43.262878417968764 0.5579999999999998 L 42.703378417968764 0.5579999999999998 L 42.703378417968764 0.9884999999999999 L 43.35137841796876 0.9884999999999999 M 44.533387939453135 0.00749999999999984 L 44.533387939453135 1.0574999999999999 L 44.47038793945314 1.0574999999999999 L 43.75488793945314 0.14549999999999985 L 43.75488793945314 1.0574999999999999 L 43.67838793945314 1.0574999999999999 L 43.67838793945314 0.00749999999999984 L 43.74288793945314 0.00749999999999984 L 44.45688793945314 0.9194999999999999 L 44.45688793945314 0.00749999999999984 L 44.533387939453135 0.00749999999999984" fill="#ffffff" fill-rule="nonzero"></path></g><g><path d=" M 0.28200000000000003 1.538325 L 0.28200000000000003 1.950825 L 0.8250000000000001 1.950825 L 0.8250000000000001 2.046825 L 0.28200000000000003 2.046825 L 0.28200000000000003 2.492325 L 0.171 2.492325 L 0.171 1.442325 L 0.891 1.442325 L 0.891 1.538325 L 0.28200000000000003 1.538325 M 1.144493408203125 1.442325 L 1.255493408203125 1.442325 L 1.255493408203125 2.492325 L 1.144493408203125 2.492325 L 1.144493408203125 1.442325 M 2.498996337890625 1.442325 L 2.498996337890625 2.492325 L 2.407496337890625 2.492325 L 1.732496337890625 1.6403250000000003 L 1.732496337890625 2.492325 L 1.621496337890625 2.492325 L 1.621496337890625 1.442325 L 1.712996337890625 1.442325 L 2.389496337890625 2.294325 L 2.389496337890625 1.442325 L 2.498996337890625 1.442325 M 2.864978759765625 1.442325 L 3.292478759765625 1.442325 Q 3.458978759765625 1.442325 3.586478759765625 1.5090750000000002 Q 3.713978759765625 1.575825 3.784478759765625 1.695075 Q 3.854978759765625 1.8143250000000002 3.854978759765625 1.9673250000000002 Q 3.854978759765625 2.1203250000000002 3.784478759765625 2.2395750000000003 Q 3.713978759765625 2.358825 3.586478759765625 2.4255750000000003 Q 3.458978759765625 2.492325 3.292478759765625 2.492325 L 2.864978759765625 2.492325 L 2.864978759765625 1.442325 M 3.2864787597656253 2.396325 Q 3.424478759765625 2.396325 3.527978759765625 2.341575 Q 3.631478759765625 2.2868250000000003 3.688478759765625 2.190075 Q 3.745478759765625 2.093325 3.745478759765625 1.9673250000000002 Q 3.745478759765625 1.841325 3.688478759765625 1.7445750000000002 Q 3.631478759765625 1.647825 3.527978759765625 1.5930750000000002 Q 3.424478759765625 1.538325 3.2864787597656253 1.538325 L 2.975978759765625 1.538325 L 2.975978759765625 2.396325 L 3.2864787597656253 2.396325 M 4.748997802734375 1.538325 L 4.379997802734375 1.538325 L 4.379997802734375 1.442325 L 5.228997802734375 1.442325 L 5.228997802734375 1.538325 L 4.859997802734375 1.538325 L 4.859997802734375 2.492325 L 4.748997802734375 2.492325 L 4.748997802734375 1.538325 M 6.307459716796875 1.442325 L 6.307459716796875 2.492325 L 6.197959716796875 2.492325 L 6.197959716796875 2.007825 L 5.540959716796875 2.007825 L 5.540959716796875 2.492325 L 5.429959716796875 2.492325 L 5.429959716796875 1.442325 L 5.540959716796875 1.442325 L 5.540959716796875 1.9103250000000003 L 6.197959716796875 1.9103250000000003 L 6.197959716796875 1.442325 L 6.307459716796875 1.442325 M 7.415942138671875 2.396325 L 7.415942138671875 2.492325 L 6.673442138671875 2.492325 L 6.673442138671875 1.442325 L 7.393442138671875 1.442325 L 7.393442138671875 1.538325 L 6.784442138671875 1.538325 L 6.784442138671875 1.911825 L 7.327442138671875 1.911825 L 7.327442138671875 2.0063250000000004 L 6.784442138671875 2.0063250000000004 L 6.784442138671875 2.396325 L 7.415942138671875 2.396325 M 8.995487548828125 1.442325 L 8.995487548828125 2.492325 L 8.903987548828125 2.492325 L 8.228987548828126 1.6403250000000003 L 8.228987548828126 2.492325 L 8.117987548828125 2.492325 L 8.117987548828125 1.442325 L 8.209487548828125 1.442325 L 8.885987548828126 2.294325 L 8.885987548828126 1.442325 L 8.995487548828125 1.442325 M 10.103969970703126 2.396325 L 10.103969970703126 2.492325 L 9.361469970703125 2.492325 L 9.361469970703125 1.442325 L 10.081469970703125 1.442325 L 10.081469970703125 1.538325 L 9.472469970703125 1.538325 L 9.472469970703125 1.911825 L 10.015469970703125 1.911825 L 10.015469970703125 2.0063250000000004 L 9.472469970703125 2.0063250000000004 L 9.472469970703125 2.396325 L 10.103969970703126 2.396325 M 11.034021240234374 2.492325 L 10.695021240234375 2.030325 L 10.357521240234375 2.492325 L 10.230021240234374 2.492325 L 10.629021240234374 1.952325 L 10.255521240234375 1.442325 L 10.383021240234374 1.442325 L 10.699521240234374 1.8713250000000001 L 11.014521240234375 1.442325 L 11.134521240234374 1.442325 L 10.762521240234374 1.949325 L 11.163021240234375 2.492325 L 11.034021240234374 2.492325 M 11.542486083984375 1.538325 L 11.173486083984375 1.538325 L 11.173486083984375 1.442325 L 12.022486083984376 1.442325 L 12.022486083984376 1.538325 L 11.653486083984376 1.538325 L 11.653486083984376 2.492325 L 11.542486083984375 2.492325 L 11.542486083984375 1.538325 M 13.379983886718753 1.9673250000000002 L 13.486483886718752 1.9673250000000002 L 13.486483886718752 2.3678250000000003 Q 13.412983886718752 2.432325 13.312483886718752 2.466825 Q 13.211983886718752 2.501325 13.100983886718753 2.501325 Q 12.943483886718752 2.501325 12.817483886718753 2.432325 Q 12.691483886718752 2.363325 12.619483886718752 2.241075 Q 12.547483886718751 2.118825 12.547483886718751 1.9673250000000002 Q 12.547483886718751 1.8158250000000002 12.619483886718752 1.693575 Q 12.691483886718752 1.571325 12.817483886718753 1.5023250000000001 Q 12.943483886718752 1.4333250000000002 13.102483886718751 1.4333250000000002 Q 13.222483886718752 1.4333250000000002 13.322983886718752 1.471575 Q 13.423483886718753 1.5098250000000002 13.492483886718752 1.5848250000000002 L 13.423483886718753 1.6553250000000002 Q 13.298983886718752 1.5323250000000002 13.106983886718751 1.5323250000000002 Q 12.979483886718752 1.5323250000000002 12.876733886718752 1.588575 Q 12.773983886718753 1.644825 12.715483886718753 1.7445750000000002 Q 12.656983886718752 1.844325 12.656983886718752 1.9673250000000002 Q 12.656983886718752 2.090325 12.715483886718753 2.189325 Q 12.773983886718753 2.288325 12.875983886718751 2.3453250000000003 Q 12.977983886718752 2.4023250000000003 13.105483886718751 2.4023250000000003 Q 13.267483886718752 2.4023250000000003 13.379983886718753 2.3213250000000003 L 13.379983886718753 1.9673250000000002 M 14.566499267578127 2.396325 L 14.566499267578127 2.492325 L 13.823999267578127 2.492325 L 13.823999267578127 1.442325 L 14.543999267578128 1.442325 L 14.543999267578128 1.538325 L 13.934999267578128 1.538325 L 13.934999267578128 1.911825 L 14.477999267578127 1.911825 L 14.477999267578127 2.0063250000000004 L 13.934999267578128 2.0063250000000004 L 13.934999267578128 2.396325 L 14.566499267578127 2.396325 M 15.729008789062505 1.442325 L 15.729008789062505 2.492325 L 15.637508789062505 2.492325 L 14.962508789062504 1.6403250000000003 L 14.962508789062504 2.492325 L 14.851508789062503 2.492325 L 14.851508789062503 1.442325 L 14.943008789062503 1.442325 L 15.619508789062504 2.294325 L 15.619508789062504 1.442325 L 15.729008789062505 1.442325 M 16.837491210937504 2.396325 L 16.837491210937504 2.492325 L 16.094991210937504 2.492325 L 16.094991210937504 1.442325 L 16.814991210937503 1.442325 L 16.814991210937503 1.538325 L 16.205991210937505 1.538325 L 16.205991210937505 1.911825 L 16.748991210937504 1.911825 L 16.748991210937504 2.0063250000000004 L 16.205991210937505 2.0063250000000004 L 16.205991210937505 2.396325 L 16.837491210937504 2.396325 M 17.83950073242188 2.492325 L 17.599500732421877 2.154825 Q 17.55900073242188 2.159325 17.515500732421877 2.159325 L 17.233500732421877 2.159325 L 17.233500732421877 2.492325 L 17.122500732421877 2.492325 L 17.122500732421877 1.442325 L 17.515500732421877 1.442325 Q 17.716500732421878 1.442325 17.83050073242188 1.538325 Q 17.944500732421876 1.634325 17.944500732421876 1.8023250000000002 Q 17.944500732421876 1.925325 17.882250732421877 2.010075 Q 17.820000732421878 2.094825 17.704500732421877 2.1323250000000002 L 17.961000732421876 2.492325 L 17.83950073242188 2.492325 M 17.751000732421875 1.9958250000000002 Q 17.83350073242188 1.926825 17.83350073242188 1.8023250000000002 Q 17.83350073242188 1.6748250000000002 17.751000732421875 1.606575 Q 17.668500732421876 1.538325 17.512500732421877 1.538325 L 17.233500732421877 1.538325 L 17.233500732421877 2.064825 L 17.512500732421877 2.064825 Q 17.668500732421876 2.064825 17.751000732421875 1.9958250000000002 M 18.889534423828128 2.211825 L 18.304534423828127 2.211825 L 18.17853442382813 2.492325 L 18.063034423828128 2.492325 L 18.54303442382813 1.442325 L 18.65253442382813 1.442325 L 19.13253442382813 2.492325 L 19.01553442382813 2.492325 L 18.889534423828128 2.211825 M 18.84903442382813 2.1218250000000003 L 18.597034423828127 1.5578250000000002 L 18.345034423828128 2.1218250000000003 L 18.84903442382813 2.1218250000000003 M 19.48204467773438 1.538325 L 19.11304467773438 1.538325 L 19.11304467773438 1.442325 L 19.96204467773438 1.442325 L 19.96204467773438 1.538325 L 19.59304467773438 1.538325 L 19.59304467773438 2.492325 L 19.48204467773438 2.492325 L 19.48204467773438 1.538325 M 20.16300659179688 1.442325 L 20.27400659179688 1.442325 L 20.27400659179688 2.492325 L 20.16300659179688 2.492325 L 20.16300659179688 1.442325 M 20.81625952148438 2.431575 Q 20.689509521484382 2.361825 20.61825952148438 2.2403250000000003 Q 20.54700952148438 2.118825 20.54700952148438 1.9673250000000002 Q 20.54700952148438 1.8158250000000002 20.61825952148438 1.694325 Q 20.689509521484382 1.5728250000000001 20.81625952148438 1.503075 Q 20.94300952148438 1.4333250000000002 21.09900952148438 1.4333250000000002 Q 21.255009521484382 1.4333250000000002 21.38025952148438 1.5023250000000001 Q 21.50550952148438 1.571325 21.57750952148438 1.693575 Q 21.64950952148438 1.8158250000000002 21.64950952148438 1.9673250000000002 Q 21.64950952148438 2.118825 21.57750952148438 2.241075 Q 21.50550952148438 2.363325 21.38025952148438 2.432325 Q 21.255009521484382 2.501325 21.09900952148438 2.501325 Q 20.94300952148438 2.501325 20.81625952148438 2.431575 M 21.32400952148438 2.346075 Q 21.42450952148438 2.289825 21.48150952148438 2.190075 Q 21.538509521484382 2.090325 21.538509521484382 1.9673250000000002 Q 21.538509521484382 1.844325 21.48150952148438 1.7445750000000002 Q 21.42450952148438 1.644825 21.32400952148438 1.588575 Q 21.22350952148438 1.5323250000000002 21.09900952148438 1.5323250000000002 Q 20.974509521484382 1.5323250000000002 20.873259521484382 1.588575 Q 20.77200952148438 1.644825 20.71425952148438 1.7445750000000002 Q 20.65650952148438 1.844325 20.65650952148438 1.9673250000000002 Q 20.65650952148438 2.090325 20.71425952148438 2.190075 Q 20.77200952148438 2.289825 20.873259521484382 2.346075 Q 20.974509521484382 2.4023250000000003 21.09900952148438 2.4023250000000003 Q 21.22350952148438 2.4023250000000003 21.32400952148438 2.346075 M 22.799993408203132 1.442325 L 22.799993408203132 2.492325 L 22.708493408203132 2.492325 L 22.03349340820313 1.6403250000000003 L 22.03349340820313 2.492325 L 21.92249340820313 2.492325 L 21.92249340820313 1.442325 L 22.01399340820313 1.442325 L 22.69049340820313 2.294325 L 22.69049340820313 1.442325 L 22.799993408203132 1.442325 M 23.759261718750007 2.431575 Q 23.63251171875001 2.361825 23.561261718750007 2.2403250000000003 Q 23.490011718750008 2.118825 23.490011718750008 1.9673250000000002 Q 23.490011718750008 1.8158250000000002 23.561261718750007 1.694325 Q 23.63251171875001 1.5728250000000001 23.759261718750007 1.503075 Q 23.88601171875001 1.4333250000000002 24.042011718750008 1.4333250000000002 Q 24.19801171875001 1.4333250000000002 24.323261718750008 1.5023250000000001 Q 24.44851171875001 1.571325 24.520511718750008 1.693575 Q 24.592511718750007 1.8158250000000002 24.592511718750007 1.9673250000000002 Q 24.592511718750007 2.118825 24.520511718750008 2.241075 Q 24.44851171875001 2.363325 24.323261718750008 2.432325 Q 24.19801171875001 2.501325 24.042011718750008 2.501325 Q 23.88601171875001 2.501325 23.759261718750007 2.431575 M 24.26701171875001 2.346075 Q 24.36751171875001 2.289825 24.424511718750008 2.190075 Q 24.48151171875001 2.090325 24.48151171875001 1.9673250000000002 Q 24.48151171875001 1.844325 24.424511718750008 1.7445750000000002 Q 24.36751171875001 1.644825 24.26701171875001 1.588575 Q 24.16651171875001 1.5323250000000002 24.042011718750008 1.5323250000000002 Q 23.91751171875001 1.5323250000000002 23.81626171875001 1.588575 Q 23.71501171875001 1.644825 23.657261718750007 1.7445750000000002 Q 23.59951171875001 1.844325 23.59951171875001 1.9673250000000002 Q 23.59951171875001 2.090325 23.657261718750007 2.190075 Q 23.71501171875001 2.289825 23.81626171875001 2.346075 Q 23.91751171875001 2.4023250000000003 24.042011718750008 2.4023250000000003 Q 24.16651171875001 2.4023250000000003 24.26701171875001 2.346075 M 24.97649560546876 1.538325 L 24.97649560546876 1.950825 L 25.51949560546876 1.950825 L 25.51949560546876 2.046825 L 24.97649560546876 2.046825 L 24.97649560546876 2.492325 L 24.86549560546876 2.492325 L 24.86549560546876 1.442325 L 25.585495605468758 1.442325 L 25.585495605468758 1.538325 L 24.97649560546876 1.538325 M 27.07727490234376 2.0400750000000003 Q 27.133524902343762 2.106825 27.133524902343762 2.211825 Q 27.133524902343762 2.346825 27.03377490234376 2.419575 Q 26.93402490234376 2.492325 26.73902490234376 2.492325 L 26.25602490234376 2.492325 L 26.25602490234376 1.442325 L 26.70902490234376 1.442325 Q 26.88452490234376 1.442325 26.98127490234376 1.512825 Q 27.07802490234376 1.583325 27.07802490234376 1.712325 Q 27.07802490234376 1.799325 27.03527490234376 1.8600750000000001 Q 26.99252490234376 1.9208250000000002 26.91752490234376 1.950825 Q 27.02102490234376 1.973325 27.07727490234376 2.0400750000000003 M 26.36702490234376 1.5338250000000002 L 26.36702490234376 1.914825 L 26.70152490234376 1.914825 Q 26.82902490234376 1.914825 26.89802490234376 1.8660750000000002 Q 26.967024902343763 1.817325 26.967024902343763 1.724325 Q 26.967024902343763 1.6313250000000001 26.89802490234376 1.582575 Q 26.82902490234376 1.5338250000000002 26.70152490234376 1.5338250000000002 L 26.36702490234376 1.5338250000000002 M 26.950524902343762 2.352825 Q 27.02252490234376 2.304825 27.02252490234376 2.2028250000000003 Q 27.02252490234376 2.0063250000000004 26.73752490234376 2.0063250000000004 L 26.36702490234376 2.0063250000000004 L 26.36702490234376 2.400825 L 26.73752490234376 2.400825 Q 26.878524902343763 2.400825 26.950524902343762 2.352825 M 28.06956738281251 2.211825 L 27.48456738281251 2.211825 L 27.358567382812513 2.492325 L 27.243067382812512 2.492325 L 27.723067382812513 1.442325 L 27.832567382812513 1.442325 L 28.312567382812514 2.492325 L 28.195567382812513 2.492325 L 28.06956738281251 2.211825 M 28.029067382812514 2.1218250000000003 L 27.77706738281251 1.5578250000000002 L 27.525067382812512 2.1218250000000003 L 28.029067382812514 2.1218250000000003 M 28.575787353515636 2.463825 Q 28.46853735351564 2.4263250000000003 28.410037353515637 2.364825 L 28.45353735351564 2.279325 Q 28.510537353515637 2.336325 28.605037353515637 2.371575 Q 28.699537353515638 2.406825 28.800037353515638 2.406825 Q 28.94103735351564 2.406825 29.01153735351564 2.3550750000000003 Q 29.082037353515638 2.303325 29.082037353515638 2.220825 Q 29.082037353515638 2.157825 29.04378735351564 2.1203250000000002 Q 29.00553735351564 2.082825 28.95003735351564 2.0625750000000003 Q 28.894537353515638 2.042325 28.795537353515638 2.018325 Q 28.677037353515637 1.9883250000000001 28.606537353515638 1.960575 Q 28.53603735351564 1.9328250000000002 28.485787353515637 1.875825 Q 28.435537353515638 1.8188250000000001 28.435537353515638 1.7213250000000002 Q 28.435537353515638 1.641825 28.47753735351564 1.576575 Q 28.519537353515638 1.5113250000000003 28.606537353515638 1.472325 Q 28.693537353515637 1.4333250000000002 28.82253735351564 1.4333250000000002 Q 28.91253735351564 1.4333250000000002 28.998787353515638 1.458075 Q 29.085037353515638 1.482825 29.148037353515637 1.5263250000000002 L 29.11053735351564 1.6148250000000002 Q 29.044537353515636 1.571325 28.969537353515637 1.5495750000000001 Q 28.894537353515638 1.527825 28.82253735351564 1.527825 Q 28.684537353515637 1.527825 28.614787353515638 1.5810750000000002 Q 28.54503735351564 1.634325 28.54503735351564 1.718325 Q 28.54503735351564 1.7813250000000003 28.583287353515637 1.8195750000000002 Q 28.621537353515638 1.857825 28.679287353515637 1.8780750000000002 Q 28.73703735351564 1.8983250000000003 28.83453735351564 1.922325 Q 28.95003735351564 1.950825 29.02128735351564 1.9785750000000002 Q 29.092537353515638 2.0063250000000004 29.142037353515637 2.0625750000000003 Q 29.19153735351564 2.118825 29.19153735351564 2.2148250000000003 Q 29.19153735351564 2.294325 29.148787353515637 2.359575 Q 29.10603735351564 2.4248250000000002 29.01753735351564 2.463075 Q 28.92903735351564 2.501325 28.800037353515638 2.501325 Q 28.683037353515637 2.501325 28.575787353515636 2.463825 M 29.78252270507814 1.998825 L 29.56802270507814 2.2163250000000003 L 29.56802270507814 2.492325 L 29.45702270507814 2.492325 L 29.45702270507814 1.442325 L 29.56802270507814 1.442325 L 29.56802270507814 2.076825 L 30.184522705078138 1.442325 L 30.31202270507814 1.442325 L 29.85752270507814 1.9178250000000001 L 30.34352270507814 2.492325 L 30.21152270507814 2.492325 L 29.78252270507814 1.998825 M 31.290020507812514 2.396325 L 31.290020507812514 2.492325 L 30.547520507812514 2.492325 L 30.547520507812514 1.442325 L 31.267520507812513 1.442325 L 31.267520507812513 1.538325 L 30.658520507812515 1.538325 L 30.658520507812515 1.911825 L 31.201520507812514 1.911825 L 31.201520507812514 2.0063250000000004 L 30.658520507812515 2.0063250000000004 L 30.658520507812515 2.396325 L 31.290020507812514 2.396325 M 31.77903002929689 1.538325 L 31.41003002929689 1.538325 L 31.41003002929689 1.442325 L 32.25903002929689 1.442325 L 32.25903002929689 1.538325 L 31.89003002929689 1.538325 L 31.89003002929689 2.492325 L 31.77903002929689 2.492325 L 31.77903002929689 1.538325 M 33.28124194335939 2.0400750000000003 Q 33.33749194335939 2.106825 33.33749194335939 2.211825 Q 33.33749194335939 2.346825 33.23774194335939 2.419575 Q 33.13799194335939 2.492325 32.942991943359395 2.492325 L 32.45999194335939 2.492325 L 32.45999194335939 1.442325 L 32.912991943359394 1.442325 Q 33.088491943359394 1.442325 33.185241943359394 1.512825 Q 33.281991943359394 1.583325 33.281991943359394 1.712325 Q 33.281991943359394 1.799325 33.23924194335939 1.8600750000000001 Q 33.19649194335939 1.9208250000000002 33.121491943359395 1.950825 Q 33.22499194335939 1.973325 33.28124194335939 2.0400750000000003 M 32.57099194335939 1.5338250000000002 L 32.57099194335939 1.914825 L 32.905491943359394 1.914825 Q 33.03299194335939 1.914825 33.101991943359394 1.8660750000000002 Q 33.17099194335939 1.817325 33.17099194335939 1.724325 Q 33.17099194335939 1.6313250000000001 33.101991943359394 1.582575 Q 33.03299194335939 1.5338250000000002 32.905491943359394 1.5338250000000002 L 32.57099194335939 1.5338250000000002 M 33.15449194335939 2.352825 Q 33.22649194335939 2.304825 33.22649194335939 2.2028250000000003 Q 33.22649194335939 2.0063250000000004 32.941491943359395 2.0063250000000004 L 32.57099194335939 2.0063250000000004 L 32.57099194335939 2.400825 L 32.941491943359395 2.400825 Q 33.08249194335939 2.400825 33.15449194335939 2.352825 M 34.273534423828146 2.211825 L 33.688534423828145 2.211825 L 33.56253442382814 2.492325 L 33.44703442382814 2.492325 L 33.92703442382814 1.442325 L 34.036534423828144 1.442325 L 34.51653442382814 2.492325 L 34.39953442382814 2.492325 L 34.273534423828146 2.211825 M 34.233034423828144 2.1218250000000003 L 33.98103442382814 1.5578250000000002 L 33.72903442382814 2.1218250000000003 L 34.233034423828144 2.1218250000000003 M 34.71450439453127 1.442325 L 34.825504394531265 1.442325 L 34.825504394531265 2.396325 L 35.413504394531266 2.396325 L 35.413504394531266 2.492325 L 34.71450439453127 2.492325 L 34.71450439453127 1.442325 M 35.62198828125002 1.442325 L 35.732988281250016 1.442325 L 35.732988281250016 2.396325 L 36.32098828125002 2.396325 L 36.32098828125002 2.492325 L 35.62198828125002 2.492325 L 35.62198828125002 1.442325 M 36.946508056640646 1.442325 L 37.05750805664064 1.442325 L 37.05750805664064 2.396325 L 37.645508056640644 2.396325 L 37.645508056640644 2.492325 L 36.946508056640646 2.492325 L 36.946508056640646 1.442325 M 38.596491943359396 2.396325 L 38.596491943359396 2.492325 L 37.8539919433594 2.492325 L 37.8539919433594 1.442325 L 38.573991943359395 1.442325 L 38.573991943359395 1.538325 L 37.964991943359394 1.538325 L 37.964991943359394 1.911825 L 38.5079919433594 1.911825 L 38.5079919433594 2.0063250000000004 L 37.964991943359394 2.0063250000000004 L 37.964991943359394 2.396325 L 38.596491943359396 2.396325 M 39.61495898437502 1.9673250000000002 L 39.721458984375026 1.9673250000000002 L 39.721458984375026 2.3678250000000003 Q 39.64795898437502 2.432325 39.54745898437503 2.466825 Q 39.44695898437502 2.501325 39.335958984375026 2.501325 Q 39.17845898437502 2.501325 39.05245898437502 2.432325 Q 38.926458984375024 2.363325 38.85445898437502 2.241075 Q 38.782458984375026 2.118825 38.782458984375026 1.9673250000000002 Q 38.782458984375026 1.8158250000000002 38.85445898437502 1.693575 Q 38.926458984375024 1.571325 39.05245898437502 1.5023250000000001 Q 39.17845898437502 1.4333250000000002 39.337458984375026 1.4333250000000002 Q 39.45745898437502 1.4333250000000002 39.55795898437502 1.471575 Q 39.658458984375024 1.5098250000000002 39.727458984375026 1.5848250000000002 L 39.658458984375024 1.6553250000000002 Q 39.533958984375026 1.5323250000000002 39.341958984375026 1.5323250000000002 Q 39.21445898437502 1.5323250000000002 39.11170898437502 1.588575 Q 39.00895898437502 1.644825 38.950458984375025 1.7445750000000002 Q 38.89195898437502 1.844325 38.89195898437502 1.9673250000000002 Q 38.89195898437502 2.090325 38.950458984375025 2.189325 Q 39.00895898437502 2.288325 39.110958984375024 2.3453250000000003 Q 39.21295898437502 2.4023250000000003 39.340458984375026 2.4023250000000003 Q 39.502458984375025 2.4023250000000003 39.61495898437502 2.3213250000000003 L 39.61495898437502 1.9673250000000002 M 40.8014743652344 2.396325 L 40.8014743652344 2.492325 L 40.0589743652344 2.492325 L 40.0589743652344 1.442325 L 40.7789743652344 1.442325 L 40.7789743652344 1.538325 L 40.169974365234395 1.538325 L 40.169974365234395 1.911825 L 40.7129743652344 1.911825 L 40.7129743652344 2.0063250000000004 L 40.169974365234395 2.0063250000000004 L 40.169974365234395 2.396325 L 40.8014743652344 2.396325 M 41.96398388671877 1.442325 L 41.96398388671877 2.492325 L 41.872483886718776 2.492325 L 41.19748388671877 1.6403250000000003 L 41.19748388671877 2.492325 L 41.086483886718774 2.492325 L 41.086483886718774 1.442325 L 41.17798388671878 1.442325 L 41.854483886718775 2.294325 L 41.854483886718775 1.442325 L 41.96398388671877 1.442325 M 42.329966308593775 1.442325 L 42.75746630859378 1.442325 Q 42.923966308593776 1.442325 43.051466308593774 1.5090750000000002 Q 43.17896630859378 1.575825 43.249466308593774 1.695075 Q 43.31996630859378 1.8143250000000002 43.31996630859378 1.9673250000000002 Q 43.31996630859378 2.1203250000000002 43.249466308593774 2.2395750000000003 Q 43.17896630859378 2.358825 43.051466308593774 2.4255750000000003 Q 42.923966308593776 2.492325 42.75746630859378 2.492325 L 42.329966308593775 2.492325 L 42.329966308593775 1.442325 M 42.75146630859378 2.396325 Q 42.889466308593775 2.396325 42.99296630859378 2.341575 Q 43.096466308593776 2.2868250000000003 43.15346630859378 2.190075 Q 43.21046630859377 2.093325 43.21046630859377 1.9673250000000002 Q 43.21046630859377 1.841325 43.15346630859378 1.7445750000000002 Q 43.096466308593776 1.647825 42.99296630859378 1.5930750000000002 Q 42.889466308593775 1.538325 42.75146630859378 1.538325 L 42.44096630859377 1.538325 L 42.44096630859377 2.396325 L 42.75146630859378 2.396325 M 43.65819946289065 2.463825 Q 43.55094946289065 2.4263250000000003 43.492449462890654 2.364825 L 43.53594946289065 2.279325 Q 43.59294946289065 2.336325 43.687449462890655 2.371575 Q 43.78194946289065 2.406825 43.882449462890655 2.406825 Q 44.02344946289065 2.406825 44.09394946289065 2.3550750000000003 Q 44.16444946289065 2.303325 44.16444946289065 2.220825 Q 44.16444946289065 2.157825 44.12619946289065 2.1203250000000002 Q 44.08794946289065 2.082825 44.03244946289065 2.0625750000000003 Q 43.97694946289065 2.042325 43.877949462890655 2.018325 Q 43.75944946289065 1.9883250000000001 43.688949462890655 1.960575 Q 43.61844946289065 1.9328250000000002 43.568199462890654 1.875825 Q 43.51794946289065 1.8188250000000001 43.51794946289065 1.7213250000000002 Q 43.51794946289065 1.641825 43.55994946289065 1.576575 Q 43.60194946289065 1.5113250000000003 43.688949462890655 1.472325 Q 43.77594946289065 1.4333250000000002 43.90494946289065 1.4333250000000002 Q 43.99494946289065 1.4333250000000002 44.08119946289065 1.458075 Q 44.16744946289065 1.482825 44.230449462890654 1.5263250000000002 L 44.19294946289065 1.6148250000000002 Q 44.12694946289065 1.571325 44.051949462890654 1.5495750000000001 Q 43.97694946289065 1.527825 43.90494946289065 1.527825 Q 43.76694946289065 1.527825 43.69719946289065 1.5810750000000002 Q 43.62744946289065 1.634325 43.62744946289065 1.718325 Q 43.62744946289065 1.7813250000000003 43.66569946289065 1.8195750000000002 Q 43.70394946289065 1.857825 43.761699462890654 1.8780750000000002 Q 43.81944946289065 1.8983250000000003 43.91694946289065 1.922325 Q 44.03244946289065 1.950825 44.10369946289065 1.9785750000000002 Q 44.17494946289065 2.0063250000000004 44.224449462890654 2.0625750000000003 Q 44.27394946289065 2.118825 44.27394946289065 2.2148250000000003 Q 44.27394946289065 2.294325 44.23119946289065 2.359575 Q 44.18844946289065 2.4248250000000002 44.09994946289065 2.463075 Q 44.01144946289065 2.501325 43.882449462890655 2.501325 Q 43.76544946289065 2.501325 43.65819946289065 2.463825 M 44.50121411132815 2.475825 Q 44.477964111328156 2.451825 44.477964111328156 2.417325 Q 44.477964111328156 2.382825 44.50121411132815 2.359575 Q 44.52446411132815 2.336325 44.55746411132815 2.336325 Q 44.59046411132815 2.336325 44.614464111328154 2.359575 Q 44.638464111328155 2.382825 44.638464111328155 2.417325 Q 44.638464111328155 2.451825 44.614464111328154 2.475825 Q 44.59046411132815 2.499825 44.55746411132815 2.499825 Q 44.52446411132815 2.499825 44.50121411132815 2.475825" fill="#eda0a0" fill-rule="nonzero"></path></g></g><defs><clipPath id="SvgjsClipPath46170"><path d=" M 45.116426757812505 -1.367810012515673 h 3.110401767502266 v 5.227945025031346 h -3.110401767502266 Z"></path></clipPath><clipPath id="SvgjsClipPath46168143b0154-2bc5-4e14-b50a-1521e719134d"><path d=" M 45.116426757812505 -1.367810012515673 L 48.22682852531477 -1.367810012515673 L 48.22682852531477 3.860135012515673 L 45.116426757812505 3.860135012515673 Z"></path></clipPath></defs></svg>